<svg width="0" height="0" class="hidden">
  <symbol fill="none" xmlns="http://www.w3.org/2000/svg" viewBox="0 0 64 64" id="edit">
    <path d="M58.8801 5.11988C57.5188 3.76057 55.6738 2.99707 53.7501 2.99707C51.8264 2.99707 49.9813 3.76057 48.6201 5.11988L25.5401 28.1899C25.3769 28.3596 25.2628 28.5704 25.2101 28.7999L22.7801 39.7299C22.7416 39.9123 22.7441 40.101 22.7873 40.2824C22.8306 40.4637 22.9136 40.6332 23.0303 40.7786C23.147 40.924 23.2945 41.0417 23.4622 41.1232C23.6299 41.2047 23.8136 41.248 24.0001 41.2499C24.0898 41.2597 24.1803 41.2597 24.2701 41.2499L35.2001 38.7899C35.4295 38.7372 35.6404 38.6231 35.8101 38.4599L58.8801 15.3799C59.5555 14.7072 60.0915 13.9077 60.4572 13.0274C60.8229 12.1471 61.0112 11.2032 61.0112 10.2499C61.0112 9.2966 60.8229 8.3527 60.4572 7.47236C60.0915 6.59202 59.5555 5.79256 58.8801 5.11988V5.11988ZM34.3001 36.4299L25.6501 38.3499L27.5701 29.6999L44.3101 12.9999C45.2025 12.1061 46.4135 11.6035 47.6765 11.6025C48.9396 11.6016 50.1513 12.1024 51.0451 12.9949C51.9388 13.8873 52.4415 15.0983 52.4424 16.3613C52.4434 17.6244 51.9425 18.8361 51.0501 19.7299L34.3001 36.4299ZM57.1201 13.6199L54.9101 15.8199C54.795 14.0728 54.049 12.427 52.811 11.189C51.5729 9.95091 49.9272 9.20493 48.1801 9.08988L50.3801 6.87988C51.2769 5.99196 52.488 5.49388 53.7501 5.49388C55.0121 5.49388 56.2232 5.99196 57.1201 6.87988C58.0104 7.77548 58.5102 8.98703 58.5102 10.2499C58.5102 11.5127 58.0104 12.7243 57.1201 13.6199V13.6199Z" fill="black"></path>
    <path d="M54.91 28.75C54.5785 28.75 54.2605 28.8817 54.0261 29.1161C53.7917 29.3505 53.66 29.6685 53.66 30V57.27C53.66 57.6625 53.5041 58.039 53.2265 58.3165C52.9489 58.5941 52.5725 58.75 52.18 58.75H6.72998C6.33746 58.75 5.96102 58.5941 5.68346 58.3165C5.40591 58.039 5.24998 57.6625 5.24998 57.27V22.73C5.24998 22.3375 5.40591 21.961 5.68346 21.6835C5.96102 21.4059 6.33746 21.25 6.72998 21.25H24C24.3315 21.25 24.6494 21.1183 24.8839 20.8839C25.1183 20.6495 25.25 20.3315 25.25 20C25.25 19.6685 25.1183 19.3505 24.8839 19.1161C24.6494 18.8817 24.3315 18.75 24 18.75H6.72998C5.66911 18.75 4.6517 19.1714 3.90155 19.9216C3.15141 20.6717 2.72998 21.6891 2.72998 22.75V57.27C2.72998 58.3309 3.15141 59.3483 3.90155 60.0984C4.6517 60.8486 5.66911 61.27 6.72998 61.27H52.18C53.2408 61.27 54.2583 60.8486 55.0084 60.0984C55.7586 59.3483 56.18 58.3309 56.18 57.27V30C56.18 29.8342 56.147 29.67 56.083 29.517C56.0189 29.364 55.925 29.2253 55.8068 29.109C55.6886 28.9926 55.5485 28.901 55.3945 28.8393C55.2405 28.7777 55.0758 28.7473 54.91 28.75Z" fill="black"></path>
  </symbol>
  <symbol fill="none" xmlns="http://www.w3.org/2000/svg" viewBox="0 0 64 64" id="delete">
    <path d="M49.2999 9.79002H43.2999V4.00002C43.3001 3.83158 43.2662 3.66484 43.2003 3.50983C43.1343 3.35482 43.0378 3.21473 42.9163 3.09798C42.7949 2.98123 42.6511 2.89022 42.4937 2.83043C42.3362 2.77064 42.1683 2.74329 41.9999 2.75002H23.3699C23.0384 2.75002 22.7205 2.88172 22.4861 3.11614C22.2516 3.35056 22.1199 3.6685 22.1199 4.00002V9.79002H16.1199C15.5431 9.79263 14.9724 9.90918 14.4407 10.133C13.9089 10.3568 13.4267 10.6834 13.0215 11.0941C12.6164 11.5048 12.2964 11.9915 12.0799 12.5262C11.8634 13.0609 11.7547 13.6332 11.7599 14.21L13.8299 56.89C13.8326 58.0473 14.2942 59.1562 15.1134 59.9736C15.9327 60.791 17.0427 61.25 18.1999 61.25H47.1999C48.3417 61.2582 49.4409 60.8171 50.2603 60.022C51.0798 59.2269 51.5537 58.1415 51.5799 57L53.6599 14.2C53.6666 13.6233 53.5587 13.0509 53.3425 12.5162C53.1264 11.9814 52.8063 11.4948 52.4007 11.0847C51.9952 10.6745 51.5123 10.3489 50.9801 10.1266C50.4478 9.9044 49.8767 9.78999 49.2999 9.79002V9.79002ZM24.6199 5.25002H40.7899V9.79002H24.6199V5.25002ZM49.0799 56.89C49.0799 57.3833 48.884 57.8564 48.5352 58.2052C48.1863 58.5541 47.7133 58.75 47.2199 58.75H18.2199C17.9705 58.7488 17.7238 58.6979 17.4942 58.6003C17.2647 58.5027 17.0568 58.3605 16.8827 58.1818C16.7087 58.0031 16.572 57.7915 16.4805 57.5594C16.389 57.3274 16.3446 57.0794 16.3499 56.83L14.2499 14.15C14.2499 13.6567 14.4459 13.1836 14.7947 12.8348C15.1435 12.486 15.6166 12.29 16.1099 12.29H49.2999C49.7838 12.2872 50.2495 12.4741 50.5972 12.8106C50.9448 13.1471 51.1469 13.6064 51.1599 14.09L49.0799 56.89Z" fill="black"></path>
    <path d="M38.9299 21.75C38.5984 21.75 38.2805 21.8817 38.046 22.1161C37.8116 22.3505 37.6799 22.6685 37.6799 23V48.26C37.6799 48.5915 37.8116 48.9095 38.046 49.1439C38.2805 49.3783 38.5984 49.51 38.9299 49.51C39.2615 49.51 39.5794 49.3783 39.8138 49.1439C40.0482 48.9095 40.1799 48.5915 40.1799 48.26V23C40.1799 22.6685 40.0482 22.3505 39.8138 22.1161C39.5794 21.8817 39.2615 21.75 38.9299 21.75V21.75Z" fill="black"></path>
    <path d="M26.48 21.75C26.1485 21.75 25.8305 21.8817 25.5961 22.1161C25.3617 22.3505 25.23 22.6685 25.23 23V48.26C25.23 48.5915 25.3617 48.9095 25.5961 49.1439C25.8305 49.3783 26.1485 49.51 26.48 49.51C26.8115 49.51 27.1294 49.3783 27.3639 49.1439C27.5983 48.9095 27.73 48.5915 27.73 48.26V23C27.73 22.6685 27.5983 22.3505 27.3639 22.1161C27.1294 21.8817 26.8115 21.75 26.48 21.75V21.75Z" fill="black"></path>
  </symbol>
  <symbol version="1.1" xmlns="http://www.w3.org/2000/svg" xmlns:xlink="http://www.w3.org/1999/xlink" xml:space="preserve" viewBox="0 0 512 512" id="plus">
    <g id="F335_x2C__Add_x2C__new_x2C__plus">
      <path d="M256,496c-5.523,0-10-4.478-10-10V26c0-5.523,4.477-10,10-10c5.522,0,10,4.477,10,10v460
		C266,491.522,261.522,496,256,496z"></path>
      <path d="M486,266H26c-5.523,0-10-4.478-10-10c0-5.523,4.477-10,10-10h460c5.522,0,10,4.477,10,10
		C496,261.522,491.522,266,486,266z"></path>
    </g>
    <g id="Layer_1"></g>
  </symbol>
  <symbol fill="none" xmlns="http://www.w3.org/2000/svg" viewBox="0 0 64 64" id="dots">
    <path d="M32.0001 39.1601C33.4162 39.1601 34.8005 38.7402 35.978 37.9534C37.1554 37.1667 38.0731 36.0484 38.6151 34.7401C39.157 33.4318 39.2988 31.9921 39.0225 30.6032C38.7462 29.2143 38.0643 27.9385 37.063 26.9372C36.0616 25.9359 34.7858 25.2539 33.3969 24.9777C32.008 24.7014 30.5684 24.8432 29.2601 25.3851C27.9518 25.927 26.8335 26.8448 26.0468 28.0222C25.26 29.1997 24.8401 30.584 24.8401 32.0001C24.8427 33.8982 25.5979 35.7179 26.9401 37.0601C28.2823 38.4022 30.1019 39.1574 32.0001 39.1601V39.1601ZM32.0001 27.3401C32.9217 27.3401 33.8227 27.6134 34.589 28.1254C35.3554 28.6375 35.9527 29.3653 36.3054 30.2168C36.6581 31.0683 36.7504 32.0053 36.5705 32.9092C36.3907 33.8132 35.9469 34.6435 35.2952 35.2952C34.6435 35.9469 33.8132 36.3907 32.9092 36.5706C32.0053 36.7504 31.0683 36.6581 30.2168 36.3054C29.3653 35.9527 28.6375 35.3554 28.1254 34.5891C27.6134 33.8227 27.3401 32.9218 27.3401 32.0001C27.3401 30.7642 27.831 29.5789 28.705 28.705C29.5789 27.8311 30.7642 27.3401 32.0001 27.3401V27.3401Z" fill="black"></path>
    <path d="M32.0899 19.07C33.506 19.07 34.8904 18.6501 36.0678 17.8633C37.2453 17.0766 38.163 15.9583 38.7049 14.65C39.2468 13.3417 39.3886 11.9021 39.1124 10.5132C38.8361 9.12425 38.1542 7.84846 37.1528 6.84712C36.1515 5.84577 34.8757 5.16385 33.4868 4.88758C32.0979 4.61131 30.6582 4.7531 29.3499 5.29503C28.0416 5.83695 26.9234 6.75466 26.1366 7.93212C25.3499 9.10958 24.9299 10.4939 24.9299 11.91C24.9326 13.8081 25.6878 15.6278 27.03 16.97C28.3722 18.3122 30.1918 19.0674 32.0899 19.07V19.07ZM32.0899 7.25C33.0116 7.25 33.9126 7.52331 34.6789 8.03535C35.4452 8.5474 36.0425 9.2752 36.3952 10.1267C36.7479 10.9782 36.8402 11.9152 36.6604 12.8191C36.4806 13.7231 36.0368 14.5534 35.385 15.2051C34.7333 15.8568 33.903 16.3007 32.9991 16.4805C32.0951 16.6603 31.1581 16.568 30.3066 16.2153C29.4551 15.8626 28.7273 15.2653 28.2153 14.499C27.7032 13.7326 27.4299 12.8317 27.4299 11.91C27.4299 10.6741 27.9209 9.48881 28.7948 8.61489C29.6687 7.74097 30.854 7.25 32.0899 7.25V7.25Z" fill="black"></path>
    <path d="M32.0899 44.9299C30.6738 44.9299 29.2895 45.3499 28.1121 46.1366C26.9346 46.9234 26.0169 48.0416 25.475 49.3499C24.933 50.6582 24.7912 52.0979 25.0675 53.4868C25.3438 54.8757 26.0257 56.1515 27.027 57.1528C28.0284 58.1542 29.3042 58.8361 30.6931 59.1124C32.082 59.3886 33.5216 59.2468 34.8299 58.7049C36.1383 58.163 37.2565 57.2453 38.0433 56.0678C38.83 54.8904 39.2499 53.506 39.2499 52.0899C39.2473 50.1918 38.4921 48.3722 37.1499 47.03C35.8077 45.6878 33.9881 44.9326 32.0899 44.9299V44.9299ZM32.0899 56.7499C31.1683 56.7499 30.2673 56.4766 29.501 55.9646C28.7346 55.4525 28.1374 54.7247 27.7847 53.8732C27.432 53.0217 27.3397 52.0848 27.5195 51.1808C27.6993 50.2769 28.1431 49.4465 28.7948 48.7948C29.4465 48.1431 30.2769 47.6993 31.1808 47.5195C32.0848 47.3397 33.0217 47.4319 33.8732 47.7847C34.7247 48.1374 35.4525 48.7346 35.9646 49.501C36.4766 50.2673 36.7499 51.1683 36.7499 52.0899C36.7499 53.3258 36.259 54.5111 35.3851 55.385C34.5111 56.259 33.3258 56.7499 32.0899 56.7499V56.7499Z" fill="black"></path>
  </symbol>
</svg>